HIERARCHY
ROOT Hips
{
    OFFSET 0.000000 0.000000 0.000000
    CHANNELS 6 Xposition Yposition Zposition Zrotation Xrotation Yrotation
    JOINT Spine
    {
        OFFSET -0.000000 0.081317 0.000000
        CHANNELS 3 Zrotation Xrotation Yrotation
        JOINT Spine1
        {
            OFFSET -0.000000 0.225200 0.000000
            CHANNELS 3 Zrotation Xrotation Yrotation
            JOINT Neck
            {
                OFFSET -0.000000 0.224275 0.020389
                CHANNELS 3 Zrotation Xrotation Yrotation
                JOINT Head
                {
                    OFFSET -0.000000 0.138833 -0.019833
                    CHANNELS 3 Zrotation Xrotation Yrotation
                    End Site
                    {
                        OFFSET -0.000000 0.198333 0.000000
                    }
                }
            }
            JOINT LeftShoulder
            {
                OFFSET 0.039732 0.208237 -0.000812
                CHANNELS 3 Zrotation Xrotation Yrotation
                JOINT LeftArm
                {
                    OFFSET 0.110955 0.000000 0.000000
                    CHANNELS 3 Zrotation Xrotation Yrotation
                    JOINT LeftForeArm
                    {
                        OFFSET 0.324523 0.000000 0.000000
                        CHANNELS 3 Zrotation Xrotation Yrotation
                        JOINT LeftHand
                        {
                            OFFSET 0.302601 0.000000 0.000000
                            CHANNELS 3 Zrotation Xrotation Yrotation
                            End Site
                            {
                                OFFSET 0.148750 0.000000 0.000000
                            }
                        }
                    }
                }
            }
            JOINT RightShoulder
            {
                OFFSET -0.039598 0.208237 -0.000812
                CHANNELS 3 Zrotation Xrotation Yrotation
                JOINT RightArm
                {
                    OFFSET -0.110955 0.000000 0.000000
                    CHANNELS 3 Zrotation Xrotation Yrotation
                    JOINT RightForeArm
                    {
                        OFFSET -0.324523 0.000000 0.000000
                        CHANNELS 3 Zrotation Xrotation Yrotation
                        JOINT RightHand
                        {
                            OFFSET -0.302601 0.000000 0.000000
                            CHANNELS 3 Zrotation Xrotation Yrotation
                            End Site
                            {
                                OFFSET -0.148750 0.000000 0.000000
                            }
                        }
                    }
                }
            }
        }
    }
    JOINT LeftUpLeg
    {
        OFFSET 0.099167 0.000000 0.000000
        CHANNELS 3 Zrotation Xrotation Yrotation
        JOINT LeftLeg
        {
            OFFSET -0.000000 -0.380753 0.000000
            CHANNELS 3 Zrotation Xrotation Yrotation
            JOINT LeftFoot
            {
                OFFSET -0.000000 -0.440093 0.000000
                CHANNELS 3 Zrotation Xrotation Yrotation
                JOINT LeftToeBase
                {
                    OFFSET -0.000000 -0.064458 0.148750
                    CHANNELS 3 Zrotation Xrotation Yrotation
                    End Site
                    {
                        OFFSET -0.000000 0.000000 0.039667
                    }
                }
            }
        }
    }
    JOINT RightUpLeg
    {
        OFFSET -0.099167 0.000000 0.000000
        CHANNELS 3 Zrotation Xrotation Yrotation
        JOINT RightLeg
        {
            OFFSET -0.000000 -0.380753 0.000000
            CHANNELS 3 Zrotation Xrotation Yrotation
            JOINT RightFoot
            {
                OFFSET -0.000000 -0.440093 0.000000
                CHANNELS 3 Zrotation Xrotation Yrotation
                JOINT RightToeBase
                {
                    OFFSET -0.000000 -0.064458 0.148750
                    CHANNELS 3 Zrotation Xrotation Yrotation
                    End Site
                    {
                        OFFSET -0.000000 0.000000 0.039667
                    }
                }
            }
        }
    }
}
MOTION
Frames:    11
Frame Time:    0.010000
-0.371634    1.308165    -0.038601    -4.028681    7.450754    44.205429    -4.687412    -13.396642    -11.271708    12.521938    25.522585    -6.471451    -20.714895    13.254970    -4.586673    18.429234    -22.383312    1.969164    -2.827115    -20.577976    -12.084323    -37.818722    5.453945    -54.170254    13.884022    9.508430    -104.402382    23.984922    23.011377    -18.813799    -0.709887    13.236476    10.154677    82.223816    44.606659    -41.406635    -14.510849    11.898691    22.733795    31.704304    11.658546    -11.157007    -0.485204    5.506956    30.652937    -0.159730    -6.700353    41.428730    62.599636    40.026947    -71.900703    0.000000    0.000000    0.000000    -13.191424    -24.455429    -7.226471    16.598545    59.956818    -9.756153    11.249649    51.631439    -5.181625    0.000000    0.000000    0.000000    
-0.369975    1.317979    -0.037727    -3.965574    7.651915    43.480350    -5.751661    -13.593436    -11.665833    12.249159    25.124678    -6.422115    -8.884585    22.521614    -3.935154    5.474781    -34.592545    -2.244124    -0.321212    -18.916157    -13.357259    -39.099705    5.526475    -54.604168    14.375561    9.602917    -104.313889    23.381369    23.760498    -18.880405    1.036044    13.892421    10.752706    83.692215    45.251396    -44.922253    -14.489414    9.811028    23.490055    31.528378    9.735837    -10.965556    -1.784980    5.246458    31.862026    -1.345756    -7.148138    41.708324    62.807213    39.103870    -73.033630    0.000000    0.000000    0.000000    -13.919502    -27.837421    -8.284168    18.797781    66.141716    -12.321107    11.948860    51.035603    -4.187667    0.000000    0.000000    0.000000    
-0.368642    1.327807    -0.035974    -3.901375    7.647440    42.831001    -5.896637    -13.612318    -12.187195    12.523134    25.266628    -6.677978    -12.868014    21.314014    -3.590837    10.767551    -32.410549    0.131763    -1.071661    -18.698618    -13.418433    -39.218830    5.028173    -54.820404    12.780066    12.534776    -105.606743    24.438150    24.615477    -19.475279    0.274246    14.151354    10.759633    83.068901    43.810410    -43.972946    -14.035069    10.159672    22.630362    31.345610    9.929414    -10.860192    -2.049448    5.899245    33.130650    -1.282709    -7.360829    42.337597    63.471897    38.465652    -73.992722    0.000000    0.000000    0.000000    -14.282162    -30.878103    -8.720167    23.071278    71.697777    -16.595589    11.435137    50.081001    -2.781256    0.000000    0.000000    0.000000    
-0.368165    1.337331    -0.034149    -4.107946    7.645268    42.263542    -6.236284    -13.753292    -12.762362    12.263793    25.346998    -6.792154    -8.348929    24.472944    -2.908994    4.608302    -36.948357    -1.588580    0.113361    -17.907679    -13.786977    -37.399506    7.816642    -55.939587    14.793996    9.359900    -105.106155    24.201307    24.244560    -18.552174    1.103051    14.472359    11.190441    83.573395    43.664391    -45.523670    -13.987275    9.065702    22.187780    28.053429    8.606237    -12.839647    -2.014749    6.185545    34.276180    -1.223395    -7.280266    41.719833    64.215813    39.380642    -74.514221    0.000000    0.000000    0.000000    -14.376056    -33.925930    -8.494974    30.958986    76.455330    -24.625553    8.392743    48.974895    2.210531    0.000000    0.000000    0.000000    
-0.368158    1.346409    -0.031942    -4.368837    7.527997    41.504200    -6.026016    -14.154359    -13.247551    12.806447    26.062002    -7.186290    -16.481699    21.425926    -2.841264    16.435238    -31.858828    3.023379    -1.613475    -18.207550    -14.104088    -34.939281    9.188848    -56.106136    14.648222    9.203255    -105.979698    25.156275    24.071665    -18.480551    -0.553377    14.884540    11.603529    82.194008    42.159279    -42.136772    -13.987275    9.065702    22.187780    28.053429    8.606237    -12.839647    -1.777119    6.491469    35.384972    -1.253026    -7.058413    40.220856    64.734619    41.342381    -74.375313    0.000000    0.000000    0.000000    -13.764840    -36.985260    -7.254469    47.039440    80.000916    -40.451031    8.688572    48.602489    2.921622    0.000000    0.000000    0.000000    
-0.368781    1.354505    -0.028952    -4.532901    7.215776    40.583237    -6.064396    -14.264090    -13.448035    13.877739    26.834984    -7.625751    -25.914103    20.044996    -2.305162    28.206379    -29.006567    7.758986    -3.479687    -18.603424    -14.547241    -35.136181    8.594772    -56.153225    12.183508    13.116403    -107.094086    25.629822    24.513346    -20.039463    -2.209753    15.030855    11.569039    81.953842    40.425594    -41.693760    -12.345011    9.576033    20.514244    30.526541    9.516280    -8.425155    -1.350693    7.010187    36.631504    -1.426528    -6.707852    38.445396    65.035339    43.465744    -73.978882    0.000000    0.000000    0.000000    -12.693120    -39.868904    -5.058383    75.011826    81.617699    -68.784653    9.192531    47.878105    3.861429    0.000000    0.000000    0.000000    
-0.368373    1.361562    -0.027710    -4.712648    7.094327    39.572197    -6.563003    -14.292972    -13.596261    13.357501    27.293751    -7.551670    -13.792690    22.839037    -1.653024    11.766397    -34.240578    2.499986    -0.983070    -18.239536    -15.121137    -36.495033    8.925968    -56.924011    12.015008    14.712749    -106.750618    26.346449    25.451828    -20.602015    -0.164335    14.948223    12.052250    83.289009    42.064461    -45.404720    -12.353922    7.558023    21.673252    30.872217    7.832970    -7.582275    -1.284372    7.355052    37.328938    -1.433069    -6.535140    37.193542    65.111732    45.544407    -73.329765    0.000000    0.000000    0.000000    -11.887781    -42.958862    -2.682495    104.933853    80.770538    -98.281898    7.373734    47.820713    8.224311    0.000000    0.000000    0.000000    
-0.368257    1.367575    -0.026221    -4.883514    6.934144    38.497746    -4.395545    -10.596682    -8.970470    2.892491    12.764209    -3.153793    25.825577    54.897701    -13.686119    -19.498508    -56.396347    -15.511966    8.814712    -1.869351    -37.688358    -38.395580    -3.831666    -49.075916    12.112213    18.107765    -104.224174    27.475031    27.421553    -22.615845    19.858913    23.761297    11.957162    92.658379    43.576900    -66.399734    -13.241273    -1.599872    25.927647    32.058876    0.202658    -4.382887    -1.159951    7.743134    38.133087    -1.505077    -6.426086    36.414368    65.258270    46.988342    -72.834656    0.000000    0.000000    0.000000    -10.657136    -45.983170    -0.032426    124.230988    78.132446    -117.048927    6.846054    48.344070    9.402098    0.000000    0.000000    0.000000    
-0.368449    1.372545    -0.024413    -5.091139    6.764922    37.485825    -4.353698    -10.803975    -9.085056    3.133349    13.873583    -3.250475    22.770586    53.937309    -11.603353    -17.253525    -55.733192    -13.432241    8.798921    -2.639405    -36.924503    -37.610146    -1.936565    -50.028381    12.129843    18.268559    -104.389984    27.433039    27.604893    -22.782318    18.974951    23.407259    12.010384    91.946007    43.293022    -65.515656    -13.085868    -1.192765    25.657877    32.266968    0.482176    -4.556079    -0.919064    8.090679    39.000439    -1.725910    -6.308060    35.368450    64.906433    48.322456    -72.108025    0.000000    0.000000    0.000000    -9.198840    -48.839428    2.573415    135.396881    74.933121    -127.816864    7.819063    48.707527    9.041887    0.000000    0.000000    0.000000    
-0.369065    1.376554    -0.022603    -5.308846    6.664172    36.537243    -4.427215    -10.781830    -9.227552    3.293960    14.217840    -3.326248    22.912992    54.280163    -11.614425    -18.666885    -56.353554    -14.285715    8.829185    -2.942917    -36.861977    -36.764778    -0.474721    -50.460243    12.105751    18.505713    -104.566597    27.403917    27.850677    -22.772295    18.565668    23.505150    12.048037    91.520027    42.951706    -65.236771    -13.122899    -1.013710    25.503689    32.875916    0.562878    -4.765714    -0.727243    8.319386    40.240376    -1.870186    -6.398763    36.403942    65.870865    47.403629    -73.238487    0.000000    0.000000    0.000000    -7.849156    -51.764359    5.273551    141.522949    71.378922    -134.170120    8.194974    49.594635    10.515055    0.000000    0.000000    0.000000    
-0.370078    1.379571    -0.020852    -5.573035    6.633686    35.629761    -4.421468    -10.842170    -9.428337    3.515970    14.428468    -3.431471    19.976793    54.828945    -10.190262    -16.290035    -56.638443    -12.441128    8.132212    -3.240090    -36.745892    -35.427441    1.260486    -50.564945    5.780335    18.780684    -105.005135    23.196951    22.758774    -15.948877    17.836288    23.810455    12.393153    90.579315    42.173107    -64.282677    -13.020763    -0.600660    25.226320    33.232601    0.760118    -5.243915    -0.457166    8.383976    41.766769    -2.114945    -6.401738    36.680710    66.087502    46.511337    -73.626892    0.000000    0.000000    0.000000    -6.271125    -54.468338    7.753930    146.062820    68.170555    -138.437653    9.134830    49.816933    11.414428    0.000000    0.000000    0.000000    
